<?xml version="1.0" encoding="utf-8"?>
<!-- Generator: Adobe Illustrator 27.5.0, SVG Export Plug-In . SVG Version: 6.00 Build 0)  -->
<svg version="1.1" xmlns="http://www.w3.org/2000/svg" xmlns:xlink="http://www.w3.org/1999/xlink" x="0px" y="0px"
	 viewBox="0 0 500 500" style="enable-background:new 0 0 500 500;" xml:space="preserve">
<g id="Background_Complete">
	<g>
		<path style="fill:#E0E0E0;" d="M279.129,92.124c0.306-3.024,2.389-4.657,4.963-4.396c2.599,0.263,4.313,2.279,4.008,5.303
			c-0.308,3.048-2.389,4.656-4.987,4.393C280.538,97.163,278.821,95.172,279.129,92.124z M294.415,88.998l3.599,0.363L284.3,105.646
			l-3.599-0.364L294.415,88.998z M285.076,92.724c0.18-1.774-0.375-2.538-1.225-2.624c-0.8-0.081-1.545,0.551-1.725,2.326
			c-0.179,1.774,0.425,2.542,1.225,2.623C284.201,95.135,284.897,94.498,285.076,92.724z M290.64,101.617
			c0.306-3.024,2.364-4.659,4.963-4.396c2.599,0.262,4.313,2.278,4.008,5.302c-0.308,3.048-2.389,4.656-4.987,4.394
			C292.025,106.654,290.333,104.665,290.64,101.617z M296.587,102.218c0.18-1.774-0.4-2.54-1.225-2.623
			c-0.824-0.084-1.545,0.55-1.725,2.325c-0.179,1.774,0.4,2.54,1.225,2.623C295.687,104.626,296.409,103.992,296.587,102.218z"/>
	</g>
	<g>
		<path style="fill:#E0E0E0;" d="M380.037,78.803c-1.101-6.553,1.949-11.616,7.524-12.553c5.576-0.937,10.047,2.804,11.158,9.414
			c1.11,6.611-1.893,11.607-7.469,12.544C385.675,89.145,381.137,85.355,380.037,78.803z M395.04,76.282
			c-0.812-4.828-3.422-7.345-6.928-6.756c-3.449,0.58-5.141,3.879-4.339,8.648c0.802,4.771,3.478,7.337,6.928,6.757
			C394.207,84.343,395.851,81.111,395.04,76.282z M411.878,62.518l4.426-0.743l-20.716,44.854l-4.426,0.743L411.878,62.518z
			 M408.746,93.484c-1.1-6.554,1.893-11.606,7.468-12.543c5.576-0.938,10.113,2.851,11.215,9.403
			c1.101,6.553-1.949,11.616-7.525,12.554C414.328,103.835,409.847,100.037,408.746,93.484z M423.692,90.973
			c-0.802-4.771-3.478-7.335-6.928-6.755c-3.506,0.589-5.15,3.819-4.339,8.648c0.812,4.829,3.421,7.346,6.927,6.757
			C422.801,99.043,424.494,95.744,423.692,90.973z"/>
	</g>
	<g>
		<path style="fill:#E0E0E0;" d="M73.632,218.288c-1.806-4.043-0.355-7.616,3.084-9.153c3.475-1.552,7.104-0.248,8.91,3.794
			c1.821,4.076,0.355,7.616-3.119,9.168C79.066,223.635,75.453,222.365,73.632,218.288z M81.583,214.736
			c-1.06-2.372-2.313-2.934-3.449-2.427c-1.068,0.477-1.553,1.816-0.493,4.188c1.06,2.372,2.38,2.904,3.448,2.427
			C82.224,218.416,82.642,217.108,81.583,214.736z M90.681,203.258l4.812-2.149l-5.521,30.52l-4.812,2.149L90.681,203.258z
			 M95.061,221.941c-1.807-4.043-0.391-7.601,3.085-9.153c3.475-1.552,7.102-0.247,8.907,3.795c1.821,4.076,0.357,7.615-3.117,9.168
			C100.461,227.302,96.881,226.016,95.061,221.941z M103.01,218.389c-1.059-2.372-2.346-2.92-3.447-2.428
			c-1.104,0.493-1.553,1.816-0.494,4.188c1.06,2.372,2.346,2.919,3.449,2.427C103.62,222.084,104.071,220.76,103.01,218.389z"/>
	</g>
	<g>
		<path style="fill:#E0E0E0;" d="M446.315,296.699l5.082,1.396l-23.654,20.061l-5.082-1.398L446.315,296.699z M423.599,297.473
			c1.174-4.27,4.563-6.107,8.197-5.108c3.67,1.009,5.644,4.322,4.47,8.591c-1.184,4.305-4.564,6.107-8.233,5.099
			C424.399,305.055,422.416,301.778,423.599,297.473z M431.997,299.782c0.689-2.505,0.078-3.735-1.121-4.065
			c-1.129-0.31-2.353,0.416-3.042,2.921c-0.688,2.505-0.009,3.755,1.12,4.065C430.153,303.032,431.308,302.286,431.997,299.782z
			 M437.828,313.908c1.174-4.27,4.527-6.117,8.197-5.108c3.669,1.01,5.642,4.321,4.468,8.591c-1.184,4.305-4.563,6.107-8.231,5.099
			C438.591,321.48,436.644,318.212,437.828,313.908z M446.224,316.216c0.688-2.505,0.044-3.745-1.12-4.065
			c-1.166-0.319-2.354,0.416-3.043,2.921c-0.689,2.505-0.043,3.745,1.122,4.065C444.347,319.456,445.536,318.721,446.224,316.216z"
			/>
	</g>
	<g>
		<path style="fill:#E0E0E0;" d="M254.097,182.981c-0.074-1.966,1.021-3.325,2.73-3.39c1.71-0.064,2.921,1.191,2.995,3.174
			c0.075,1.983-1.038,3.326-2.747,3.391C255.367,186.221,254.171,184.948,254.097,182.981z M258.421,182.818
			c-0.05-1.333-0.625-2.065-1.549-2.029c-0.888,0.033-1.44,0.825-1.391,2.14c0.05,1.316,0.66,2.063,1.548,2.03
			C257.954,184.924,258.472,184.152,258.421,182.818z M264.011,179.441l1.675-0.063l-7.719,12.274l-1.675,0.063L264.011,179.441z
			 M262.156,188.327c-0.074-1.967,1.021-3.325,2.73-3.39c1.709-0.064,2.922,1.207,2.996,3.174c0.074,1.965-1.039,3.325-2.748,3.39
			C263.424,191.565,262.23,190.292,262.156,188.327z M266.48,188.164c-0.05-1.316-0.643-2.064-1.548-2.03
			c-0.906,0.034-1.442,0.807-1.392,2.141c0.05,1.333,0.643,2.064,1.549,2.03C265.995,190.27,266.53,189.479,266.48,188.164z"/>
	</g>
	<g>
		<path style="fill:#E0E0E0;" d="M441.348,183.574c-0.074-1.966,1.021-3.325,2.73-3.39c1.71-0.064,2.921,1.191,2.995,3.174
			c0.075,1.983-1.038,3.326-2.747,3.391C442.618,186.813,441.422,185.54,441.348,183.574z M445.672,183.411
			c-0.05-1.333-0.625-2.065-1.549-2.029c-0.888,0.033-1.44,0.825-1.391,2.14c0.05,1.316,0.66,2.063,1.548,2.03
			C445.205,185.516,445.723,184.745,445.672,183.411z M451.262,180.033l1.675-0.063l-7.719,12.274l-1.675,0.063L451.262,180.033z
			 M449.407,188.919c-0.074-1.967,1.021-3.325,2.73-3.39c1.709-0.064,2.922,1.207,2.996,3.174c0.074,1.965-1.039,3.325-2.748,3.39
			C450.675,192.158,449.481,190.884,449.407,188.919z M453.731,188.756c-0.05-1.316-0.643-2.064-1.548-2.03
			c-0.906,0.034-1.442,0.807-1.392,2.141c0.05,1.333,0.643,2.064,1.549,2.03C453.246,190.863,453.781,190.072,453.731,188.756z"/>
	</g>
	<g>
		<polygon style="fill:#EBEBEB;" points="291.256,144.78 299.111,149.076 291.256,153.372 286.96,161.227 282.664,153.372 
			274.809,149.076 282.664,144.78 286.96,136.925 		"/>
	</g>
	<g>
		<polygon style="fill:#EBEBEB;" points="267.291,133.938 269.966,135.401 267.291,136.865 265.828,139.54 264.365,136.865 
			261.69,135.401 264.365,133.938 265.828,131.263 		"/>
	</g>
	<g>
		<polygon style="fill:#EBEBEB;" points="241.189,203.766 243.864,205.229 241.189,206.692 239.726,209.367 238.263,206.692 
			235.588,205.229 238.263,203.766 239.726,201.091 		"/>
	</g>
	<g>
		<polygon style="fill:#EBEBEB;" points="394.08,139.72 398.908,142.36 394.08,145 391.44,149.828 388.8,145 383.972,142.36 
			388.8,139.72 391.44,134.892 		"/>
	</g>
	<g>
		<polygon style="fill:#EBEBEB;" points="429.255,210.417 433.617,213.771 428.44,215.634 425.086,219.996 423.223,214.819 
			418.861,211.465 424.038,209.602 427.392,205.24 		"/>
	</g>
	<g>
		<polygon style="fill:#EBEBEB;" points="355.6,167.994 358.972,169.838 355.6,171.682 353.756,175.054 351.912,171.682 
			348.541,169.838 351.912,167.994 353.756,164.622 		"/>
	</g>
</g>
<g id="Background_Simple" style="display:none;">
	<g style="display:inline;">
		<path style="fill:#EBEBEB;" d="M418.251,103.295l-2.209-3.64c-18.62-30.683-52.285-49.18-87.779-46.936
			c-4.563,0.288-9.106,0.906-13.588,1.866c-32.271,6.908-60.351,31.312-71.99,62.566c-6.845,18.381-8.758,39.545-21.747,54.135
			c-16.906,18.988-45.607,19.585-70.841,18.798c-25.234-0.787-53.955-0.116-70.778,18.947
			c-10.536,11.939-13.885,28.917-13.035,44.906c2.249,42.331,31.746,80.181,69.258,98.994s81.679,20.498,122.734,12.222
			c57.513-11.594,112.208-43.432,145.083-92.608C436.235,223.369,444.555,156.372,418.251,103.295z"/>
	</g>
</g>
<g id="Plant">
	<g>
		<g>
			<g>
				<path style="fill:#FF725E;" d="M420.986,426.813c2.378,1.032,4.128,3.23,5.005,5.67c0.878,2.439,0.957,5.104,0.665,7.681
					c-0.565,4.984-3.397,10.016-6.447,13.998c-4.197-3.663-5.163-10.053-5.449-13.325
					C414.309,435.664,416.632,426.042,420.986,426.813"/>
			</g>
		</g>
		<g>
			<g>
				<path style="fill:#FF725E;" d="M425.089,462.388c-0.672-2.817,0.5-5.907,2.663-7.834c2.162-1.926,5.184-2.742,8.071-2.521
					c1.335,0.102,2.778,0.491,3.543,1.591c0.715,1.028,0.635,2.462,0.055,3.572c-0.58,1.109-1.584,1.939-2.644,2.604
					C433.139,462.082,429.201,463.622,425.089,462.388"/>
			</g>
		</g>
		<g>
			<g>
				<g>
					<path style="fill:#263238;" d="M419.706,477.671c-0.025-0.006,0.032-0.369,0.15-1.023c0.132-0.72,0.303-1.65,0.508-2.768
						c0.464-2.313,1.059-5.626,2.857-8.843c1.773-3.208,4.256-5.571,6.346-6.743c1.038-0.601,1.946-0.958,2.588-1.145
						c0.317-0.107,0.575-0.147,0.745-0.189c0.172-0.036,0.263-0.049,0.266-0.037c0.03,0.081-1.454,0.348-3.466,1.591
						c-2.018,1.207-4.416,3.546-6.161,6.7c-1.762,3.15-2.395,6.417-2.922,8.717c-0.254,1.16-0.46,2.1-0.621,2.745
						C419.834,477.323,419.73,477.676,419.706,477.671z"/>
				</g>
			</g>
		</g>
		<g>
			<g>
				<g>
					<path style="fill:#263238;" d="M419.864,434.297c0.012,0,0.03,0.153,0.051,0.447c0.02,0.332,0.045,0.758,0.076,1.285
						c0.06,1.116,0.125,2.732,0.19,4.728c0.129,3.994,0.231,9.514,0.205,15.611c-0.027,6.099-0.177,11.619-0.34,15.611
						c-0.082,1.996-0.161,3.611-0.23,4.726c-0.036,0.527-0.065,0.952-0.087,1.284c-0.024,0.293-0.043,0.447-0.055,0.447
						c-0.013-0.001-0.018-0.155-0.018-0.45c0.005-0.332,0.011-0.759,0.019-1.286c0.028-1.162,0.067-2.766,0.115-4.729
						c0.098-3.993,0.206-9.509,0.234-15.605c0.025-6.093-0.035-11.61-0.099-15.603c-0.031-1.963-0.056-3.568-0.074-4.73
						c-0.003-0.528-0.006-0.954-0.008-1.287C419.845,434.452,419.852,434.297,419.864,434.297z"/>
				</g>
			</g>
		</g>
		<g>
			<g>
				<path style="fill:#FF725E;" d="M417.827,465.422c-0.955-6.031-5.019-11.483-10.526-14.121c-1.402-0.672-3.234-1.111-4.387-0.068
					c-1.155,1.045-0.896,2.92-0.331,4.372c2.351,6.039,8.665,10.302,15.145,10.226"/>
			</g>
		</g>
		<g>
			<g>
				<g>
					<path style="fill:#263238;" d="M407.981,456.029c0.011-0.022,0.327,0.117,0.891,0.389c0.283,0.134,0.629,0.3,1.006,0.536
						c0.377,0.236,0.833,0.466,1.281,0.804c0.458,0.324,0.969,0.667,1.466,1.103c0.522,0.406,1.029,0.897,1.56,1.417
						c1.034,1.065,2.075,2.338,2.964,3.808c0.875,1.479,1.51,2.997,1.953,4.415c0.2,0.716,0.392,1.396,0.493,2.05
						c0.142,0.646,0.195,1.26,0.252,1.818c0.077,0.557,0.051,1.067,0.07,1.511c0.02,0.445-0.008,0.828-0.034,1.14
						c-0.046,0.625-0.083,0.968-0.108,0.965c-0.082-0.003,0.061-1.386-0.184-3.59c-0.073-0.549-0.139-1.152-0.292-1.786
						c-0.112-0.642-0.313-1.308-0.517-2.01c-0.453-1.389-1.085-2.874-1.945-4.327c-0.874-1.444-1.888-2.7-2.892-3.761
						c-0.516-0.518-1.008-1.01-1.514-1.421c-0.481-0.44-0.977-0.791-1.42-1.124C409.208,456.675,407.944,456.1,407.981,456.029z"/>
				</g>
			</g>
		</g>
	</g>
</g>
<g id="Character">
	<g>
		<g>
			<g>
				<path style="fill:#FF725E;" d="M186.597,127.94c1.224,0,14.814,3.265,18.632,10c3.817,6.735,5.467,31.386,5.467,31.386
					s1.097,17.34-1.279,25.665c-2.409,8.438-10.156,49.223-13.034,57.523c-3.692,10.646-8.927,28.213-8.927,28.213l-44.735-31.768
					L186.597,127.94z"/>
			</g>
			<g>
				<path style="fill:#263238;" d="M200.815,89.505c-1.931,4.178-1.309,9.072-0.173,13.532s2.761,8.886,2.729,13.488
					c-0.048,6.763-1.763,16.001-15.463,11.637c-8.344-2.658-0.67,22.106-5.177,29.613c-0.892,1.485-1.823,3.014-3.235,4.018
					c-3.366,2.394-7.999,1.005-11.859-0.464c-1.234-0.47-2.638-1.127-2.921-2.417c-0.145-0.662,0.052-1.345,0.248-1.994
					c6.819-22.632,13.638-45.263,20.457-67.895"/>
			</g>
			<g>
				<g>
					<g>
						<g>
							<g>
								<g>
									<g>
										<g>
											<g>
												<g>
													<g>
														<g>
															<g>
																<g>
																	<g>
																		<path style="fill:#FFBEA9;" d="M177.534,142.36c7.856-1.854,10.269-5.76,10.362-12.669
																			c0.119-8.788,0.119-8.788,0.119-8.788s8.695-0.452,10.722-13.402c1.008-6.44,1.885-16.85,1.322-25.477
																			c-0.507-7.765-8.575-21.46-16.312-20.624l-21.249,10.338c-2.35,0.254-4.116,2.264-4.064,4.627l0,0l1.65,50.203"/>
																	</g>
																</g>
															</g>
														</g>
													</g>
												</g>
											</g>
										</g>
									</g>
								</g>
							</g>
						</g>
						<g>
							<g>
								<g>
									<g>
										<g>
											<g>
												<g>
													<g>
														<g>
															<g>
																<g>
																	<g>
																		<g>
																			<path style="fill:#263238;" d="M195.085,91.003c0.033,0.877-0.682,1.627-1.597,1.679
																				c-0.913,0.051-1.682-0.616-1.714-1.493c-0.033-0.877,0.682-1.628,1.595-1.68
																				C194.284,89.458,195.052,90.127,195.085,91.003z"/>
																		</g>
																	</g>
																</g>
															</g>
														</g>
													</g>
												</g>
											</g>
										</g>
									</g>
								</g>
							</g>
						</g>
						<g>
							<g>
								<g>
									<g>
										<g>
											<g>
												<g>
													<g>
														<g>
															<g>
																<g>
																	<g>
																		<g>
																			<g>
																				<path style="fill:#263238;" d="M197.766,87.947c-0.147,0.279-1.608-0.469-3.353-0.085
																					c-1.75,0.355-2.804,1.635-3.048,1.438c-0.117-0.086-0.009-0.556,0.446-1.13c0.447-0.57,1.284-1.212,2.373-1.443
																					c1.089-0.229,2.106,0.019,2.736,0.363C197.562,87.432,197.841,87.819,197.766,87.947z"/>
																			</g>
																		</g>
																	</g>
																</g>
															</g>
														</g>
													</g>
												</g>
											</g>
										</g>
									</g>
								</g>
							</g>
						</g>
						<g>
							<g>
								<g>
									<g>
										<g>
											<g>
												<g>
													<g>
														<g>
															<g>
																<g>
																	<g>
																		<g>
																			<path style="fill:#263238;" d="M177.934,90.817c0.033,0.877-0.682,1.627-1.597,1.679
																				c-0.913,0.051-1.682-0.617-1.715-1.493c-0.033-0.876,0.682-1.628,1.596-1.679
																				C177.133,89.271,177.901,89.94,177.934,90.817z"/>
																		</g>
																	</g>
																</g>
															</g>
														</g>
													</g>
												</g>
											</g>
										</g>
									</g>
								</g>
							</g>
						</g>
						<g>
							<g>
								<g>
									<g>
										<g>
											<g>
												<g>
													<g>
														<g>
															<g>
																<g>
																	<g>
																		<g>
																			<g>
																				<path style="fill:#263238;" d="M180.068,89.788c-0.283,0.173-1.307-1.224-3.172-1.762
																					c-1.857-0.565-3.514,0.039-3.648-0.258c-0.069-0.135,0.27-0.498,0.999-0.777
																					c0.716-0.281,1.843-0.429,3.003-0.086c1.16,0.345,2.009,1.076,2.44,1.697
																					C180.131,89.228,180.204,89.712,180.068,89.788z"/>
																			</g>
																		</g>
																	</g>
																</g>
															</g>
														</g>
													</g>
												</g>
											</g>
										</g>
									</g>
								</g>
							</g>
						</g>
						<g>
							<g>
								<g>
									<g>
										<g>
											<g>
												<g>
													<g>
														<g>
															<g>
																<g>
																	<g>
																		<g>
																			<path style="fill:#263238;" d="M186.735,101.126c-0.009-0.102,1.101-0.296,2.901-0.53
																				c0.456-0.048,0.887-0.14,0.964-0.451c0.107-0.33-0.085-0.821-0.307-1.352c-0.432-1.103-0.883-2.259-1.357-3.471
																				c-1.885-4.942-3.25-9.006-3.05-9.08c0.2-0.074,1.89,3.871,3.774,8.813c0.453,1.219,0.887,2.38,1.3,3.492
																				c0.174,0.518,0.472,1.105,0.241,1.79c-0.122,0.341-0.456,0.589-0.749,0.669c-0.292,0.09-0.549,0.095-0.774,0.109
																				C187.865,101.217,186.742,101.228,186.735,101.126z"/>
																		</g>
																	</g>
																</g>
															</g>
														</g>
													</g>
												</g>
											</g>
										</g>
									</g>
								</g>
							</g>
						</g>
						<g>
							<g>
								<g>
									<g>
										<g>
											<g>
												<g>
													<g>
														<g>
															<g>
																<g>
																	<g>
																		<path style="fill:#E4977C;" d="M188.015,121.029c0,0-8.708,0.581-17.348-4.586c0,0,4.346,9.243,17.3,8.003
																			L188.015,121.029z"/>
																	</g>
																</g>
															</g>
														</g>
													</g>
												</g>
											</g>
										</g>
									</g>
								</g>
							</g>
						</g>
						<g>
							<g>
								<g>
									<g>
										<g>
											<g>
												<g>
													<g>
														<g>
															<g>
																<g>
																	<g>
																		<path style="fill:#E4977C;" d="M186.448,105.47c-0.886-1.327-2.225-2.212-3.433-2.269
																			c-0.838-0.04-1.625,0.328-2.013,1.122c-0.388,0.793-0.311,2.036,0.287,2.97c0.673,1.053,1.818,1.478,2.708,1.309
																			c0.891-0.169,1.583-0.811,2.236-1.457c0.18-0.179,0.364-0.366,0.453-0.641c0.089-0.274,0.059-0.66-0.141-0.937"/>
																	</g>
																</g>
															</g>
														</g>
													</g>
												</g>
											</g>
										</g>
									</g>
								</g>
							</g>
						</g>
						<g>
							<g>
								<g>
									<g>
										<g>
											<g>
												<g>
													<g>
														<g>
															<g>
																<g>
																	<g>
																		<g>
																			<path style="fill:#263238;" d="M181.479,102.374c0.291-0.018,0.299,1.922,1.962,3.294
																				c1.66,1.377,3.727,1.155,3.742,1.426c0.027,0.121-0.459,0.378-1.332,0.403c-0.856,0.031-2.106-0.241-3.124-1.081
																				c-1.014-0.842-1.452-1.967-1.52-2.762C181.132,102.844,181.347,102.363,181.479,102.374z"/>
																		</g>
																	</g>
																</g>
															</g>
														</g>
													</g>
												</g>
											</g>
										</g>
									</g>
								</g>
							</g>
						</g>
						<g>
							<g>
								<g>
									<g>
										<g>
											<g>
												<g>
													<g>
														<g>
															<path style="fill:#263238;" d="M181.628,81.544c-0.223,0.466-1.976,0.062-4.086,0.107
																c-2.112,0.003-3.854,0.448-4.088-0.013c-0.103-0.22,0.235-0.646,0.961-1.046c0.72-0.401,1.84-0.739,3.106-0.755
																c1.266-0.013,2.393,0.299,3.122,0.683C181.378,80.904,181.726,81.322,181.628,81.544z"/>
														</g>
													</g>
												</g>
											</g>
										</g>
									</g>
								</g>
							</g>
						</g>
						<g>
							<g>
								<g>
									<g>
										<g>
											<g>
												<g>
													<g>
														<g>
															<path style="fill:#263238;" d="M198.316,84.028c-0.391,0.405-1.919-0.019-3.758-0.042
																c-1.837-0.075-3.396,0.267-3.754-0.158c-0.157-0.206,0.089-0.612,0.77-0.995c0.671-0.382,1.793-0.693,3.056-0.66
																c1.263,0.035,2.357,0.404,2.996,0.821C198.275,83.412,198.488,83.83,198.316,84.028z"/>
														</g>
													</g>
												</g>
											</g>
										</g>
									</g>
								</g>
							</g>
						</g>
						<g>
							<g>
								<path style="fill:#263238;" d="M130.781,131.675c2.823-4.564,11.938-15.502,15.165-23.037
									c2.302-5.375,4.036-24.238,8.946-33.947c4.909-9.71,10.692-13.637,16.365-15.165c5.673-1.527,9.928,0.545,12.491,2.837
									c2.563,2.291,3.436,8.961,3.436,8.961s-13.685,3.043-18.294,10.847c-5.295,8.964-6.578,13.473-6.578,13.473l-1.713,4.903
									c0,0,1.603,9.492,2.193,14.183c0.59,4.691-0.351,9.049-4.212,10.952l-7.767,5.489c0,0,4.216,45.371,3.748,45.728
									c-1.159,0.885-10.879-1.077-19.67-3.094c-1.708-0.392-2.638-16.4-2.638-16.4l-2.569,14.987l-6.613-1.506
									C123.07,170.886,125.012,141.002,130.781,131.675z"/>
							</g>
						</g>
						<g>
							<g>
								<path style="fill:#263238;" d="M186.93,71.384c0,0,8.466-0.824,11.358,8.013c1.308,3.998,2.306,15.545,2.306,15.545
									s1.145-9.167,0.723-14.401c-0.422-5.234-3.033-11.85-7.044-15.514c-3.9-3.563-7.189-5.234-14.164-4.812
									c0,0,2.778,1.261,4.563,3.905C185.565,65.444,185.781,66.41,186.93,71.384z"/>
							</g>
						</g>
					</g>
					<g>
						<g>
							<g>
								<g>
									<g>
										<g>
											<g>
												<g>
													<g>
														<g>
															<g>
																<g>
																	<g>
																		<g>
																			<g>
																				<g>
																					<g>
																						<g>
																							<path style="fill:#FFBEA9;" d="M162.407,96.326c-0.143-2.865-3.264-4.777-5.747-3.342
																								c-1.364,0.788-2.406,2.373-2.281,5.415c0.334,8.112,8.409,6.103,8.414,5.87
																								C162.795,104.124,162.574,99.681,162.407,96.326z"/>
																						</g>
																					</g>
																				</g>
																			</g>
																		</g>
																	</g>
																</g>
															</g>
														</g>
													</g>
												</g>
											</g>
										</g>
									</g>
								</g>
							</g>
						</g>
						<g>
							<g>
								<g>
									<g>
										<g>
											<g>
												<g>
													<g>
														<g>
															<g>
																<g>
																	<g>
																		<g>
																			<g>
																				<g>
																					<g>
																						<g>
																							<g>
																								<path style="fill:#E4977C;" d="M160.188,101.297c-0.037-0.024-0.137,0.105-0.372,0.224
																									c-0.228,0.116-0.626,0.206-1.055,0.065c-0.87-0.279-1.648-1.61-1.747-3.07
																									c-0.051-0.737,0.075-1.447,0.312-2.04c0.223-0.604,0.59-1.034,1.018-1.129
																									c0.425-0.117,0.741,0.129,0.85,0.353c0.118,0.222,0.073,0.386,0.117,0.399
																									c0.024,0.019,0.169-0.143,0.089-0.476c-0.04-0.159-0.143-0.347-0.34-0.495
																									c-0.201-0.15-0.491-0.219-0.79-0.174c-0.624,0.069-1.163,0.668-1.425,1.318
																									c-0.295,0.655-0.454,1.453-0.397,2.281c0.119,1.632,1.019,3.128,2.206,3.418
																									c0.577,0.126,1.046-0.066,1.283-0.268C160.181,101.494,160.216,101.311,160.188,101.297z"/>
																							</g>
																						</g>
																					</g>
																				</g>
																			</g>
																		</g>
																	</g>
																</g>
															</g>
														</g>
													</g>
												</g>
											</g>
										</g>
									</g>
								</g>
							</g>
						</g>
					</g>
				</g>
			</g>
			<g>
				<path style="fill:#263238;" d="M158.169,70.055c-5.012,7.004-8.44,15.134-9.953,23.613c-0.952,5.335-1.272,11.096-4.506,15.444
					c-1.699,2.285-4.127,4.043-5.38,6.6c-1.363,2.782-1.161,6.179-2.756,8.834c-1.739,2.895-5.203,4.26-7.468,6.765
					c-4.263,4.716-3.318,11.996-5.06,18.11c-1.108,3.89-3.41,7.431-6.515,10.023c-1.064,0.888-2.36,2.05-1.964,3.378
					c0.24,0.802,1.033,1.291,1.779,1.671c2.455,1.252,4.719,6.039,7.426,6.552c0.56-14.58,7.638-32.091,15.312-44.501
					c4.38-7.083,9.213-14.162,10.942-22.309c1.138-5.364,0.863-10.921,1.46-16.372c0.597-5.451,2.271-11.127,6.395-14.742"/>
			</g>
			<g>
				<g>
					<path style="fill:#263238;" d="M155.744,106.476c-0.102,0.121-0.844-0.223-1.822-1.308c-0.936-1.086-2.088-2.999-2.346-5.686
						c-0.122-1.329,0.002-2.851,0.531-4.369c0.522-1.51,1.409-2.969,2.499-4.299c1.09-1.336,2.368-2.561,3.707-3.755
						c1.348-1.198,2.802-2.375,4.348-3.501c3.093-2.255,6.263-4.089,9.259-5.497c3.021-1.422,5.783-2.335,7.927-3.367
						c2.161-1.003,3.708-2.097,4.669-2.999c0.967-0.894,1.432-1.508,1.608-1.41c0.139,0.07-0.025,0.87-0.841,2.073
						c-0.803,1.204-2.376,2.679-4.57,3.961c-2.18,1.314-4.928,2.427-7.728,3.892c-2.826,1.471-5.825,3.29-8.792,5.452
						c-1.483,1.08-2.888,2.194-4.204,3.318c-1.32,1.131-2.542,2.241-3.553,3.384c-1.014,1.14-1.809,2.322-2.312,3.518
						c-0.501,1.188-0.7,2.39-0.709,3.512c-0.004,2.257,0.733,4.043,1.338,5.193C155.387,105.734,155.877,106.33,155.744,106.476z"/>
				</g>
			</g>
			<g>
				<g>
					<path style="fill:#455A64;" d="M159.038,106.837c-0.009,0.016-0.146-0.048-0.401-0.185c-0.264-0.125-0.617-0.365-1.063-0.691
						c-0.871-0.668-2.011-1.863-2.858-3.666c-0.838-1.777-1.364-4.245-0.694-6.833c0.655-2.597,2.553-4.966,4.86-6.867
						c2.328-1.91,4.736-3.423,6.912-4.822c2.191-1.375,4.211-2.536,5.932-3.465c1.72-0.93,3.138-1.633,4.127-2.099
						c0.494-0.234,0.882-0.407,1.147-0.519s0.408-0.163,0.416-0.147c0.017,0.035-0.513,0.326-1.471,0.847
						c-0.959,0.52-2.347,1.271-4.039,2.239c-1.692,0.967-3.686,2.157-5.854,3.549c-2.149,1.412-4.554,2.943-6.835,4.816
						c-2.265,1.868-4.085,4.137-4.73,6.591c-0.662,2.444-0.203,4.823,0.566,6.559c0.776,1.76,1.838,2.96,2.651,3.661
						C158.526,106.507,159.068,106.787,159.038,106.837z"/>
				</g>
			</g>
			<g>
				<g>
					<path style="fill:#455A64;" d="M175.139,59.003c-0.013-0.052,1.04-0.234,2.663,0.175c1.607,0.399,3.765,1.331,5.697,3.005
						c1.947,1.696,2.942,3.907,3.308,5.514c0.186,0.812,0.245,1.484,0.243,1.947c0.003,0.463-0.036,0.717-0.068,0.717
						c-0.094,0.005-0.083-1.021-0.531-2.57c-0.445-1.533-1.445-3.605-3.296-5.216c-1.852-1.606-3.923-2.568-5.452-3.041
						C176.161,59.047,175.139,59.094,175.139,59.003z"/>
				</g>
			</g>
			<g>
				<g>
					<path style="fill:#E0E0E0;" d="M154.593,103.232c0.031,0.034-0.376,0.38-0.939,1.14c-0.551,0.755-1.252,1.979-1.496,3.64
						c-0.246,1.637,0.067,3.74,1.332,5.549c1.216,1.78,3.54,3.257,6.064,2.946c1.24-0.145,2.401-0.695,3.212-1.537
						c0.82-0.841,1.292-1.932,1.532-2.998c0.46-2.152,0.215-4.247-0.502-5.739c-0.713-1.519-1.905-2.341-2.758-2.687
						c-0.874-0.346-1.423-0.307-1.417-0.361c0-0.015,0.133-0.037,0.388-0.032c0.255,0.002,0.634,0.052,1.1,0.203
						c0.913,0.3,2.215,1.12,3.018,2.713c0.802,1.57,1.097,3.733,0.641,6.006c-0.241,1.129-0.733,2.313-1.634,3.248
						c-0.895,0.938-2.168,1.542-3.518,1.7c-1.356,0.168-2.711-0.152-3.828-0.757c-1.122-0.606-2.041-1.468-2.693-2.434
						c-1.322-1.94-1.606-4.166-1.301-5.878c0.305-1.734,1.086-2.971,1.7-3.707c0.309-0.374,0.59-0.626,0.779-0.793
						C154.472,103.294,154.581,103.219,154.593,103.232z"/>
				</g>
			</g>
		</g>
		<g>
			<g>
				<polygon style="fill:#FFBEA9;" points="122.811,455.734 128.501,431.07 108.476,427.717 108.476,445.751 114.051,453.959 				
					"/>
				<g>
					<g>
						<g>
							<g>
								<g>
									<g>
										<g>
											<g>
												<g>
													<g>
														<g>
															<g>
																<g>
																	<g>
																		<path style="fill:#FF725E;" d="M124.658,454.548l-0.675,1.07c0,0,13.463,18.77,11.472,22.324l-35.793-23.034
																			l8.152-11.598C111.55,449.2,116.941,453.062,124.658,454.548z"/>
																	</g>
																</g>
															</g>
														</g>
													</g>
												</g>
											</g>
										</g>
									</g>
								</g>
							</g>
							<g style="opacity:0.6;">
								<g>
									<g>
										<g>
											<g>
												<g>
													<g>
														<g>
															<g>
																<g>
																	<g>
																		<g>
																			<path style="fill:#FFFFFF;" d="M108.988,449.452c-0.814-0.256-1.794,0.214-2.084,1.018
																				c-0.29,0.804,0.18,1.804,0.991,2.075c0.81,0.271,2.004-0.258,2.201-1.089c0.198-0.831-0.418-1.975-1.269-2.044"
																				/>
																		</g>
																	</g>
																</g>
															</g>
														</g>
													</g>
												</g>
											</g>
										</g>
									</g>
								</g>
							</g>
							<g style="opacity:0.6;">
								<g>
									<g>
										<g>
											<g>
												<g>
													<g>
														<g>
															<g>
																<g>
																	<g>
																		<path style="fill:#FFFFFF;" d="M99.663,454.908l1.961-2.789l33.588,23.098c0,0,1.147,1.719,0.245,2.725
																			L99.663,454.908z"/>
																	</g>
																</g>
															</g>
														</g>
													</g>
												</g>
											</g>
										</g>
									</g>
								</g>
							</g>
							<g>
								<g>
									<g>
										<g>
											<g>
												<g>
													<g>
														<g>
															<g>
																<g>
																	<g>
																		<g>
																			<path style="fill:#263238;" d="M124.044,455.798c-0.118,0.171-1.043-0.312-2.265-0.303
																				c-1.222-0.023-2.152,0.448-2.268,0.276c-0.139-0.138,0.794-1.015,2.273-0.999
																				C123.263,454.774,124.186,455.662,124.044,455.798z"/>
																		</g>
																	</g>
																</g>
															</g>
														</g>
													</g>
												</g>
											</g>
										</g>
									</g>
								</g>
							</g>
							<g>
								<g>
									<g>
										<g>
											<g>
												<g>
													<g>
														<g>
															<g>
																<g>
																	<g>
																		<g>
																			<path style="fill:#263238;" d="M126.8,459.767c-0.069,0.195-1.017,0.005-2.087,0.362
																				c-1.08,0.326-1.744,1.029-1.913,0.909c-0.182-0.078,0.356-1.18,1.694-1.599
																				C125.828,459.009,126.903,459.598,126.8,459.767z"/>
																		</g>
																	</g>
																</g>
															</g>
														</g>
													</g>
												</g>
											</g>
										</g>
									</g>
								</g>
							</g>
							<g>
								<g>
									<g>
										<g>
											<g>
												<g>
													<g>
														<g>
															<g>
																<g>
																	<g>
																		<g>
																			<path style="fill:#263238;" d="M126.04,465.632c-0.183-0.065,0.136-1.095,1.201-1.763
																				c1.06-0.676,2.127-0.523,2.108-0.33c0.006,0.207-0.855,0.379-1.721,0.941
																				C126.749,465.022,126.225,465.727,126.04,465.632z"/>
																		</g>
																	</g>
																</g>
															</g>
														</g>
													</g>
												</g>
											</g>
										</g>
									</g>
								</g>
							</g>
						</g>
					</g>
				</g>
			</g>
			<g>
				<g>
					<g>
						<g>
							<g>
								<g>
									<g>
										<polygon style="fill:#FFBEA9;" points="73.649,299.712 91.594,302.115 84.688,321.909 65.442,315.294 64.353,307.98 
																					"/>
									</g>
								</g>
							</g>
						</g>
					</g>
				</g>
				<g>
					<g>
						<g>
							<g>
								<g>
									<g>
										<g>
											<g>
												<g>
													<g>
														<g>
															<g>
																<g>
																	<g>
																		<g>
																			<path style="fill:#FF725E;" d="M67.336,316.635l-1.081-0.458c0,0-15.183,15.15-18.738,13.859l15.743-36.252
																				l11.849,5.732C70.272,303.821,67.541,309.34,67.336,316.635z"/>
																		</g>
																	</g>
																</g>
															</g>
														</g>
													</g>
												</g>
											</g>
										</g>
									</g>
								</g>
							</g>
							<g style="opacity:0.6;">
								<g>
									<g>
										<g>
											<g>
												<g>
													<g>
														<g>
															<g>
																<g>
																	<g>
																		<g>
																			<g>
																				<path style="fill:#FFFFFF;" d="M69.658,301.511c0.113-0.785-0.465-1.612-1.245-1.757
																					c-0.78-0.145-1.626,0.436-1.753,1.219c-0.127,0.783,0.537,1.797,1.328,1.854c0.791,0.057,1.747-0.68,1.683-1.47
																					"/>
																			</g>
																		</g>
																	</g>
																</g>
															</g>
														</g>
													</g>
												</g>
											</g>
										</g>
									</g>
								</g>
							</g>
							<g style="opacity:0.6;">
								<g>
									<g>
										<g>
											<g>
												<g>
													<g>
														<g>
															<g>
																<g>
																	<g>
																		<g>
																			<path style="fill:#FFFFFF;" d="M63.259,293.784l2.85,1.379l-16.132,34.241c0,0-1.403,1.309-2.461,0.633
																				L63.259,293.784z"/>
																		</g>
																	</g>
																</g>
															</g>
														</g>
													</g>
												</g>
											</g>
										</g>
									</g>
								</g>
							</g>
							<g>
								<g>
									<g>
										<g>
											<g>
												<g>
													<g>
														<g>
															<g>
																<g>
																	<g>
																		<g>
																			<g>
																				<path style="fill:#263238;" d="M66.098,316.259c-0.175-0.083,0.13-1.003-0.061-2.121
																					c-0.162-1.123-0.733-1.905-0.593-2.037c0.105-0.148,1.049,0.575,1.256,1.933
																					C66.92,315.39,66.244,316.369,66.098,316.259z"/>
																			</g>
																		</g>
																	</g>
																</g>
															</g>
														</g>
													</g>
												</g>
											</g>
										</g>
									</g>
								</g>
							</g>
							<g>
								<g>
									<g>
										<g>
											<g>
												<g>
													<g>
														<g>
															<g>
																<g>
																	<g>
																		<g>
																			<g>
																				<path style="fill:#263238;" d="M62.874,319.379c-0.189-0.034-0.157-0.931-0.645-1.858
																					c-0.46-0.94-1.204-1.444-1.12-1.617c0.045-0.178,1.134,0.149,1.719,1.313
																					C63.423,318.375,63.045,319.449,62.874,319.379z"/>
																			</g>
																		</g>
																	</g>
																</g>
															</g>
														</g>
													</g>
												</g>
											</g>
										</g>
									</g>
								</g>
							</g>
							<g>
								<g>
									<g>
										<g>
											<g>
												<g>
													<g>
														<g>
															<g>
																<g>
																	<g>
																		<g>
																			<g>
																				<path style="fill:#263238;" d="M57.386,319.562c0.032-0.177,1.023-0.04,1.795,0.836
																					c0.779,0.87,0.799,1.871,0.618,1.882c-0.189,0.037-0.476-0.727-1.121-1.436
																					C58.051,320.12,57.327,319.746,57.386,319.562z"/>
																			</g>
																		</g>
																	</g>
																</g>
															</g>
														</g>
													</g>
												</g>
											</g>
										</g>
									</g>
								</g>
							</g>
						</g>
					</g>
				</g>
				<g>
					<path style="fill:#263238;" d="M172.279,280.727c-1.594,0.788-21.643,78.073-27.952,81.26l-12.772,62.849
						c0,0,1.162,1.308,0.872,4.069c-0.291,2.761-1.453,3.197-1.453,3.197s-18.454,2.325-25.865-3.051c0,0,0.872-5.522,1.308-5.958
						c0.436-0.436,2.18-50.277,6.684-61.902c4.505-11.625,10.462-48.388,9.881-55.799c-0.581-7.411-2.616-24.703-2.18-30.224
						c0.436-5.522,2.325-11.043,2.325-11.043L172.279,280.727z"/>
				</g>
				<g>
					<path style="fill:#263238;" d="M180.238,283.85c0,0-6.8,46.599-12.664,54.179c-5.864,7.579-13.857,7.781-15.755,8.102
						c-1.899,0.32-70.956-25.225-70.956-25.225s-1.123-18.808,1.123-21.615c0,0,6.176,0.281,7.579,2.246l35.932,5.053l13.196-40.143
						L180.238,283.85z"/>
				</g>
				<g>
					<g>
						<path style="fill:#455A64;" d="M168.448,283.769c0.018,0.004-0.034,0.281-0.149,0.804c-0.131,0.568-0.306,1.327-0.525,2.281
							c-0.491,2.026-1.18,4.871-2.027,8.364c-1.771,7.095-4.197,16.811-6.878,27.546c-2.67,10.762-5.452,20.445-8.19,27.196
							c-1.341,3.383-2.579,6.058-3.503,7.87c-0.448,0.913-0.844,1.598-1.096,2.07c-0.259,0.469-0.402,0.71-0.418,0.702
							c-0.016-0.008,0.097-0.267,0.325-0.75c0.222-0.487,0.588-1.185,1.007-2.11c0.866-1.835,2.049-4.525,3.342-7.914
							c2.642-6.764,5.359-16.43,8.029-27.191c2.738-10.72,5.216-20.423,7.025-27.508c0.913-3.476,1.657-6.307,2.187-8.323
							c0.259-0.943,0.466-1.695,0.62-2.257C168.345,284.032,168.431,283.764,168.448,283.769z"/>
					</g>
				</g>
				<g>
					<g>
						<path style="fill:#455A64;" d="M120.924,273.924c0.027,0.008-0.04,0.242-0.076,0.701c-0.045,0.458-0.073,1.138-0.059,2.016
							c0.016,1.755,0.192,4.291,0.458,7.426c0.299,3.149,0.652,6.872,1.043,10.997c0.331,4.137,0.992,8.685,1.036,13.509
							c0.128,9.682-2.066,18.225-3.386,24.346c-0.664,3.028-1.206,5.499-1.596,7.276c-0.177,0.819-0.319,1.476-0.428,1.98
							c-0.104,0.452-0.167,0.687-0.184,0.684c-0.018-0.003,0.011-0.245,0.081-0.703c0.085-0.509,0.195-1.173,0.333-1.999
							c0.307-1.733,0.792-4.234,1.434-7.315c1.231-6.151,3.353-14.662,3.225-24.262c-0.043-4.786-0.687-9.315-0.993-13.469
							c-0.35-4.132-0.665-7.863-0.932-11.017c-0.22-3.137-0.34-5.689-0.294-7.453c0.018-0.882,0.078-1.568,0.158-2.028
							C120.814,274.15,120.924,273.924,120.924,273.924z"/>
					</g>
				</g>
				<g>
					<g>
						<path style="fill:#455A64;" d="M88.847,301.263c0.076,0.029-0.326,1.187-0.868,3.085c-0.544,1.897-1.189,4.547-1.621,7.523
							c-0.426,2.978-0.555,5.703-0.568,7.676c-0.015,1.973,0.044,3.198-0.037,3.204c-0.036,0.003-0.09-0.3-0.158-0.852
							c-0.072-0.551-0.133-1.354-0.173-2.347c-0.081-1.986-0.01-4.745,0.421-7.756c0.436-3.008,1.146-5.676,1.785-7.558
							c0.318-0.942,0.604-1.694,0.828-2.203C88.676,301.525,88.814,301.25,88.847,301.263z"/>
					</g>
				</g>
				<g>
					<g>
						<path style="fill:#455A64;" d="M70.216,318.471c0,0.144-0.086,0.26-0.192,0.26c-0.106,0-0.192-0.117-0.192-0.26
							c0-0.144,0.086-0.26,0.192-0.26C70.13,318.211,70.216,318.328,70.216,318.471z"/>
					</g>
				</g>
				<g>
					<g>
						<path style="fill:#455A64;" d="M106.88,422.113c0.016-0.076,1.402,0.163,3.643,0.516c2.241,0.354,5.343,0.798,8.785,1.148
							c3.443,0.346,6.571,0.531,8.838,0.633c2.267,0.103,3.672,0.146,3.672,0.223c0,0.036-0.351,0.07-0.987,0.1
							c-0.636,0.033-1.557,0.049-2.695,0.045c-2.276-0.008-5.422-0.135-8.881-0.483c-3.457-0.351-6.565-0.855-8.797-1.303
							c-1.116-0.223-2.015-0.423-2.632-0.583C107.21,422.252,106.872,422.148,106.88,422.113z"/>
					</g>
				</g>
			</g>
		</g>
		<g>
			<g>
				<path style="fill:#FF725E;" d="M178.624,287.744c0.221-0.147,13.126,0,13.126,0s9.663-47.083,10.811-61.512
					c1.148-14.429-23.545,6.685-23.545,6.685L178.624,287.744z"/>
			</g>
			<g>
				<path style="fill:#FFBEA9;" d="M198.076,272.092c0.438,2.179,1.113,4.13,0.835,6.335c-0.08,0.636-0.195,1.281-0.502,1.844
					c-0.372,0.679-0.992,1.181-1.597,1.664c-1.46,1.165-2.919,2.331-4.379,3.496c-0.468,0.374-1.144,0.755-1.613,0.38
					c-0.339-0.271-0.335-0.782-0.271-1.212c0.183-1.23,0.608-2.424,1.243-3.494l1.558-6.541l-1.601-3.379L198.076,272.092"/>
			</g>
			<g>
				<path style="fill:#FF725E;" d="M161.188,123.664c0,0,12.541-0.001,19.913,16.384c0,0,22.215,38.747,22.732,55.279
					c0,0-0.258,24.54-4.391,39.006c-4.133,14.466-16.027,52.794-16.027,52.794s-37.186-3.198-44.677-8.623
					c-7.491-5.425-24.023-4.65-24.023-4.65s10.074-30.739,22.473-49.338c12.399-18.599,7.491-51.663,7.491-51.663
					S141.208,123.812,161.188,123.664z"/>
			</g>
			<g>
				<g>
					<path style="fill:#263238;" d="M179.016,286.702c0.001-0.013,0.207-0.008,0.602,0.014c0.396,0.015,0.981,0.036,1.743,0.033
						c1.523-0.002,3.756-0.089,6.557-0.363l-0.125,0.103c2.581-9.08,6.843-24.586,10.449-42.45
						c2.904-14.248,4.663-27.319,5.198-36.827c0.266-4.754,0.266-8.61,0.18-11.27c-0.061-1.299-0.11-2.324-0.145-3.064
						c-0.01-0.326-0.018-0.589-0.024-0.799c-0.003-0.18,0-0.273,0.009-0.274c0.009-0.001,0.024,0.09,0.044,0.269
						c0.02,0.209,0.045,0.47,0.076,0.795c0.059,0.74,0.14,1.764,0.242,3.063c0.148,2.663,0.204,6.53-0.015,11.298
						c-0.442,9.536-2.148,22.644-5.055,36.91c-3.611,17.887-7.966,33.383-10.682,42.429l-0.029,0.096l-0.096,0.008
						c-2.82,0.233-5.058,0.275-6.588,0.228c-0.765-0.021-1.352-0.067-1.747-0.108C179.218,286.747,179.015,286.716,179.016,286.702z
						"/>
				</g>
			</g>
			<g>
				<path style="fill:#E0E0E0;" d="M187.863,130.711c0.075-1.397,13.775,20.084,17.351,42.755c1.286,8.154-1.751,18.34-1.751,18.34
					l-25.705-57.704C177.757,134.102,187.184,143.346,187.863,130.711z"/>
			</g>
			<g>
				<g>
					<path style="fill:#263238;" d="M169.051,126.055c0,0,1.211,0.793,2.992,2.684c0.879,0.95,1.837,2.253,2.604,3.931
						c0.781,1.67,1.455,3.642,2.274,5.782l0.012,0.032l0.001,0.037c0.025,1.832,0.391,3.801,1.085,5.799
						c0.688,2.001,1.675,4.03,2.792,6.108c2.283,4.137,4.753,8.673,7.137,13.501c5.296,10.624,9.331,20.599,11.996,27.899
						c1.342,3.648,2.326,6.636,3,8.702c0.31,1.004,0.556,1.801,0.738,2.391c0.163,0.548,0.241,0.839,0.224,0.844
						c-0.017,0.005-0.128-0.274-0.323-0.812c-0.205-0.583-0.482-1.369-0.83-2.359c-0.732-2.044-1.769-5.011-3.153-8.638
						c-2.75-7.258-6.831-17.191-12.118-27.796c-2.382-4.824-4.829-9.344-7.1-13.503c-1.112-2.094-2.1-4.151-2.785-6.194
						c-0.691-2.039-1.05-4.061-1.055-5.941l0.013,0.068c-0.799-2.154-1.448-4.133-2.191-5.789c-0.729-1.664-1.638-2.954-2.483-3.916
						c-0.841-0.97-1.586-1.643-2.077-2.111c-0.229-0.212-0.416-0.384-0.569-0.525C169.106,126.129,169.045,126.063,169.051,126.055z
						"/>
				</g>
			</g>
			<g>
				<g>
					<path style="fill:#263238;" d="M186.386,212.04c0.004-0.023,0.214-0.029,0.545,0.133c0.329,0.157,0.758,0.522,1.05,1.123
						c0.274,0.589,0.43,1.459,0.013,2.299c-0.404,0.859-1.48,1.358-2.506,1.244c-1.029-0.09-1.985-0.792-2.213-1.713
						c-0.244-0.906,0.08-1.728,0.465-2.252c0.405-0.532,0.897-0.806,1.251-0.895c0.357-0.094,0.561-0.046,0.561-0.022
						c0.038,0.09-0.853,0.109-1.508,1.126c-0.304,0.483-0.526,1.203-0.308,1.905c0.197,0.706,0.944,1.248,1.804,1.332
						c0.86,0.087,1.699-0.297,2.031-0.951c0.352-0.645,0.276-1.395,0.073-1.928C187.201,212.315,186.331,212.121,186.386,212.04z"/>
				</g>
			</g>
			<g>
				<g>
					<path style="fill:#263238;" d="M154.148,215.794c-0.017,0.041-0.636-0.23-1.784-0.617c-0.574-0.19-1.283-0.411-2.123-0.555
						c-0.835-0.141-1.822-0.216-2.835,0.064c-1.012,0.277-1.974,0.989-2.606,2.065c-0.651,1.058-1.084,2.365-1.629,3.695
						c-1.07,2.68-2.241,5.61-3.471,8.689c-0.336,0.834-0.668,1.658-0.981,2.436l-0.248-0.355c6.116-0.173,11.401,1.612,14.79,3.425
						c1.712,0.902,3.002,1.776,3.85,2.426c0.432,0.314,0.739,0.595,0.955,0.772c0.212,0.183,0.318,0.285,0.307,0.298
						c-0.025,0.031-0.496-0.316-1.373-0.916c-0.877-0.598-2.185-1.419-3.898-2.27c-3.393-1.711-8.61-3.402-14.616-3.218
						l-0.396,0.012l0.147-0.367c0.312-0.778,0.643-1.602,0.978-2.437c1.243-3.074,2.427-5.999,3.509-8.674
						c0.557-1.32,1.001-2.627,1.709-3.746c0.354-0.554,0.78-1.05,1.279-1.424c0.502-0.367,1.051-0.62,1.597-0.766
						c1.103-0.278,2.131-0.166,2.985,0.005c0.859,0.176,1.569,0.428,2.138,0.65c0.57,0.223,0.999,0.424,1.288,0.564
						C154.008,215.694,154.156,215.778,154.148,215.794z"/>
				</g>
			</g>
			<g>
				<g>
					<path style="fill:#263238;" d="M203.786,204.474c-0.012-0.002-0.003-0.127,0.026-0.368c0.038-0.279,0.085-0.629,0.143-1.061
						c0.148-0.977,0.351-2.325,0.607-4.017c0.561-3.507,1.349-8.431,2.293-14.326l-0.003,0.027c0.117-2.982,0.263-6.242,0.33-9.693
						c0.043-1.716-0.055-3.494-0.194-5.299c-0.044-0.904-0.151-1.812-0.279-2.727c-0.1-0.919-0.253-1.838-0.432-2.761
						c-0.977-5.502-2.748-10.564-4.664-15.004c-1.934-4.441-4.109-8.244-6.166-11.274c-2.059-3.033-3.981-5.299-5.352-6.823
						c-0.688-0.76-1.267-1.308-1.633-1.706c-0.373-0.391-0.564-0.603-0.552-0.616c0.012-0.013,0.227,0.173,0.624,0.541
						c0.391,0.374,0.995,0.901,1.708,1.643c1.422,1.487,3.399,3.73,5.509,6.754c2.108,3.021,4.33,6.83,6.301,11.289
						c1.953,4.459,3.75,9.552,4.737,15.104c0.181,0.931,0.335,1.859,0.435,2.788c0.128,0.924,0.235,1.842,0.278,2.756
						c0.137,1.822,0.23,3.601,0.181,5.344c-0.08,3.465-0.244,6.721-0.384,9.705l-0.001,0.014l-0.002,0.012
						c-1.019,5.882-1.87,10.795-2.477,14.295c-0.307,1.683-0.551,3.025-0.729,3.997c-0.085,0.428-0.154,0.774-0.209,1.05
						C203.83,204.355,203.798,204.476,203.786,204.474z"/>
				</g>
			</g>
			<g>
				<path style="fill:#FFBEA9;" d="M185.052,264.122c0.521-0.238,10.09,3.603,11.992,6.059c1.58,2.041,1.24,3.742,1.24,3.742
					s-12.215-5.228-14.716-4.875c-2.501,0.353-4.222,3.968-5.772,1.631c-1.55-2.337-1.788-2.619-1.788-2.619L185.052,264.122z"/>
			</g>
			<g>
				<g>
					<path style="fill:#FF725E;" d="M161.059,126.055c3.507-0.007,12.525,6.834,13.027,24.404
						c0.488,17.084-0.627,47.957-0.627,47.957l14.224,64.018c0.412,0.628-13.828,8.159-20.108,6.543
						c0,0-16.383-57.782-17.785-64.905c-1.402-7.123-4.439-40.297-3.271-47.772C147.688,148.824,145.867,126.088,161.059,126.055z"
						/>
				</g>
				<g>
					<g>
						<path style="fill:#E0E0E0;" d="M169.28,262.071c-0.795-0.554-2.09-0.008-2.248,0.949c-0.158,0.956,0.894,1.889,1.825,1.62
							c0.931-0.27,1.32-1.621,0.675-2.344"/>
					</g>
					<g>
						<g>
							<path style="fill:#263238;" d="M169.533,262.295c0.02-0.02,0.143,0.038,0.276,0.236c0.133,0.194,0.247,0.541,0.198,0.971
								c-0.055,0.416-0.275,0.949-0.817,1.259c-0.546,0.325-1.327,0.179-1.825-0.276c-0.511-0.44-0.748-1.199-0.491-1.779
								c0.243-0.576,0.747-0.857,1.153-0.961c0.421-0.1,0.779-0.028,0.988,0.081c0.212,0.108,0.284,0.224,0.267,0.246
								c-0.036,0.077-0.475-0.228-1.146,0.025c-0.317,0.122-0.675,0.385-0.812,0.779c-0.149,0.385,0.011,0.884,0.388,1.219
								c0.378,0.334,0.892,0.434,1.256,0.24c0.375-0.182,0.594-0.57,0.677-0.899C169.815,262.74,169.461,262.34,169.533,262.295z"/>
						</g>
					</g>
				</g>
				<g>
					<g>
						<path style="fill:#E0E0E0;" d="M167.887,258.284c-0.779-0.342-1.794,0.403-1.701,1.249c0.093,0.845,1.246,1.352,1.932,0.849
							C168.803,259.878,168.665,258.626,167.887,258.284"/>
					</g>
					<g>
						<g>
							<path style="fill:#263238;" d="M167.887,258.284c0.01-0.027,0.132-0.03,0.313,0.08c0.18,0.107,0.398,0.351,0.507,0.72
								c0.098,0.359,0.102,0.878-0.257,1.315c-0.358,0.453-1.078,0.556-1.624,0.302c-0.556-0.231-0.967-0.831-0.876-1.401
								c0.079-0.56,0.464-0.909,0.794-1.079c0.346-0.17,0.673-0.175,0.873-0.114C167.82,258.166,167.9,258.259,167.887,258.284
								c-0.022,0.079-0.451-0.096-0.958,0.255c-0.238,0.166-0.481,0.462-0.503,0.809c-0.035,0.342,0.215,0.703,0.608,0.877
								c0.394,0.172,0.829,0.112,1.057-0.145c0.24-0.25,0.294-0.629,0.255-0.917C168.262,258.551,167.844,258.353,167.887,258.284z"
								/>
						</g>
					</g>
				</g>
				<g>
					<g>
						<path style="fill:#E0E0E0;" d="M166.901,254.441c-0.779-0.342-1.794,0.403-1.701,1.249c0.093,0.845,1.246,1.352,1.932,0.849
							C167.818,256.035,167.68,254.783,166.901,254.441"/>
					</g>
					<g>
						<g>
							<path style="fill:#263238;" d="M166.901,254.441c0.01-0.027,0.132-0.03,0.313,0.08c0.18,0.107,0.398,0.351,0.507,0.72
								c0.098,0.359,0.102,0.878-0.257,1.315c-0.358,0.453-1.079,0.556-1.624,0.302c-0.556-0.23-0.967-0.831-0.876-1.401
								c0.079-0.56,0.464-0.909,0.795-1.079c0.346-0.17,0.673-0.174,0.873-0.114C166.834,254.323,166.914,254.416,166.901,254.441
								c-0.022,0.079-0.451-0.096-0.958,0.255c-0.238,0.166-0.481,0.462-0.503,0.809c-0.035,0.342,0.215,0.703,0.608,0.877
								c0.394,0.172,0.829,0.112,1.057-0.145c0.24-0.25,0.294-0.629,0.256-0.917C167.277,254.708,166.858,254.51,166.901,254.441z"
								/>
						</g>
					</g>
				</g>
			</g>
			<g>
				<g>
					<path style="fill:#263238;" d="M146.716,154.637c0,0,0.01,0.203,0.004,0.596c0.001,0.394-0.035,0.978-0.025,1.747
						c0.013,1.537,0.06,3.805,0.204,6.729c0.269,5.847,0.837,14.315,1.675,24.807c0.216,2.623,0.442,5.373,0.678,8.24
						c0.124,1.433,0.25,2.896,0.378,4.387c0.033,0.373,0.066,0.747,0.099,1.123l0.05,0.56l0.118,0.548
						c0.147,0.728,0.348,1.477,0.535,2.228c1.538,6.01,3.308,12.418,5.154,19.177c3.746,13.507,7.878,28.405,12.238,44.129
						l-0.226-0.189c2.391,0.231,4.991-0.048,7.511-0.692c4.513-1.164,8.726-3.26,12.42-5.801l-0.099,0.265
						c-5.313-23.948-10.146-45.729-14.002-63.107l-0.006-0.026l0.001-0.026c0.595-14.092,1.08-25.579,1.418-33.563
						c0.181-3.969,0.321-7.065,0.418-9.189c0.054-1.039,0.095-1.838,0.124-2.397c0.031-0.54,0.062-0.817,0.062-0.817
						s0.009,0.278-0.002,0.82c-0.015,0.56-0.037,1.359-0.066,2.399c-0.072,2.125-0.176,5.223-0.31,9.194
						c-0.295,7.986-0.72,19.476-1.241,33.57l-0.005-0.052c3.887,17.371,8.758,39.144,14.114,63.083l0.038,0.17l-0.137,0.095
						c-3.767,2.593-8,4.699-12.599,5.889c-2.564,0.655-5.224,0.944-7.687,0.705l-0.179-0.017l-0.047-0.172
						c-4.344-15.729-8.46-30.634-12.191-44.145c-1.833-6.764-3.586-13.173-5.109-19.199c-0.186-0.756-0.382-1.494-0.535-2.262
						l-0.119-0.568l-0.049-0.571c-0.032-0.376-0.064-0.751-0.096-1.124c-0.123-1.492-0.244-2.955-0.363-4.39
						c-0.224-2.869-0.439-5.62-0.645-8.244c-0.792-10.499-1.306-18.973-1.515-24.827c-0.114-2.927-0.129-5.198-0.11-6.737
						c0.006-0.769,0.058-1.355,0.075-1.749C146.691,154.837,146.716,154.637,146.716,154.637z"/>
				</g>
			</g>
		</g>
	</g>
</g>
<g id="Shopping_Cart">
	<g>
		<g>
			<g>
				<g>
					<path style="fill:#FF725E;" d="M428.018,235.801l-49.856-36.439c-3.97-2.902-8.983-3.986-13.798-2.985l-132.352,27.524
						c-9.464,1.968-15.505,11.279-13.446,20.724l20.393,93.526c2.048,9.393,11.331,15.34,20.72,13.275l131.564-28.941
						c4.923-1.083,9.134-4.249,11.54-8.678l30.251-55.67C437.192,250.485,435.048,240.939,428.018,235.801z M406.429,259.712
						c-1.029,5.863-6.615,9.781-12.478,8.753c-5.863-1.029-9.781-6.615-8.753-12.478c1.029-5.863,6.615-9.781,12.478-8.753
						C403.539,248.264,407.458,253.85,406.429,259.712z"/>
				</g>
			</g>
			<g style="opacity:0.4;">
				<g>
					<path d="M428.018,235.801l-49.856-36.439c-3.97-2.902-8.983-3.986-13.798-2.985l-132.352,27.524
						c-9.464,1.968-15.505,11.279-13.446,20.724l20.393,93.526c2.048,9.393,11.331,15.34,20.72,13.275l131.564-28.941
						c4.923-1.083,9.134-4.249,11.54-8.678l30.251-55.67C437.192,250.485,435.048,240.939,428.018,235.801z M406.524,259.614
						c-1.04,5.93-6.69,9.893-12.62,8.853c-5.93-1.04-9.72-6.691-8.68-12.62c1.04-5.929,6.815-9.595,12.744-8.555
						S407.565,253.684,406.524,259.614z"/>
				</g>
			</g>
		</g>
		<g>
			<g>
				<path style="fill:#FF725E;" d="M423.618,232.734l-49.856-36.439c-3.97-2.902-8.983-3.986-13.798-2.985l-132.352,27.524
					c-9.464,1.968-15.505,11.279-13.446,20.724l20.393,93.526c2.048,9.393,11.331,15.34,20.72,13.275l131.564-28.941
					c4.923-1.083,9.134-4.249,11.54-8.678l30.251-55.67C432.792,247.419,430.648,237.872,423.618,232.734z M401.931,256.748
					c-1.017,5.794-6.537,9.667-12.331,8.65c-5.794-1.016-9.667-6.537-8.65-12.331c1.016-5.794,6.538-9.667,12.331-8.65
					C399.074,245.433,402.947,250.954,401.931,256.748z"/>
			</g>
		</g>
		<g>
			<g>
				<g>
					<g>
						<path style="fill:#263238;" d="M342.364,181.588c-0.083,0.03-4.311-11.388-9.442-25.5
							c-5.133-14.117-9.225-25.582-9.141-25.612c0.083-0.03,4.31,11.385,9.443,25.503
							C338.354,170.091,342.447,181.558,342.364,181.588z"/>
					</g>
				</g>
			</g>
			<g>
				<g>
					<g>
						<path style="fill:#263238;" d="M378.113,106.451c0.005,0.001,0,0.067-0.017,0.195c-0.021,0.145-0.047,0.331-0.081,0.566
							c-0.081,0.517-0.196,1.244-0.342,2.17c-0.307,1.905-0.745,4.623-1.284,7.974c-1.077,6.734-2.513,16.045-3.954,26.349
							c-1.439,10.308-2.612,19.657-3.422,26.428c-0.4,3.37-0.724,6.104-0.951,8.02c-0.113,0.93-0.202,1.66-0.266,2.18
							c-0.032,0.234-0.057,0.421-0.077,0.566c-0.019,0.127-0.032,0.192-0.037,0.192c-0.005-0.001-0.004-0.067,0.005-0.195
							c0.012-0.146,0.027-0.334,0.046-0.57c0.049-0.521,0.118-1.254,0.206-2.186c0.184-1.898,0.473-4.643,0.85-8.033
							c0.753-6.779,1.89-16.135,3.33-26.447c1.442-10.307,2.914-19.616,4.048-26.342c0.567-3.363,1.041-6.082,1.385-7.958
							c0.171-0.921,0.306-1.645,0.401-2.16c0.047-0.232,0.084-0.417,0.112-0.56C378.091,106.514,378.108,106.45,378.113,106.451z"/>
					</g>
				</g>
			</g>
			<g>
				<g>
					<g>
						<path style="fill:#263238;" d="M423.671,145.117c0.068,0.057-7.096,8.665-15.998,19.223
							c-8.905,10.562-16.177,19.075-16.245,19.018c-0.068-0.057,7.094-8.663,16-19.225
							C416.33,153.574,423.603,145.059,423.671,145.117z"/>
					</g>
				</g>
			</g>
			<g>
				<g>
					<g>
						<path style="fill:#263238;" d="M321.936,188.292c-0.057,0.067-4.305-3.461-9.486-7.88c-5.183-4.421-9.336-8.058-9.279-8.125
							c0.057-0.067,4.304,3.46,9.487,7.881C317.839,184.587,321.994,188.225,321.936,188.292z"/>
					</g>
				</g>
			</g>
			<g>
				<g>
					<g>
						<path style="fill:#263238;" d="M431.133,199.482c-0.006,0.088-5.603-0.24-12.499-0.733
							c-6.898-0.493-12.483-0.964-12.477-1.053c0.006-0.088,5.602,0.24,12.5,0.733C425.553,198.923,431.139,199.394,431.133,199.482
							z"/>
					</g>
				</g>
			</g>
		</g>
		<g>
			<path style="fill:#FFFFFF;" d="M266.283,279.879c0.979,4.378-1.928,7.688-8.586,9.177l-13.099,2.93l-5.665-25.329l12.375-2.768
				c6.333-1.416,10.181,0.497,11.062,4.44c0.567,2.533-0.299,4.778-2.118,6.325C263.276,274.928,265.571,276.695,266.283,279.879z
				 M245.747,269.768l1.335,5.971l5.826-1.303c2.858-0.64,4.188-2,3.743-3.99c-0.445-1.991-2.221-2.62-5.078-1.98L245.747,269.768z
				 M260.247,280.582c-0.477-2.135-2.332-2.783-5.371-2.104l-6.839,1.529l1.399,6.261l6.84-1.529
				C259.315,284.06,260.733,282.754,260.247,280.582z"/>
			<path style="fill:#FFFFFF;" d="M266.612,260.467l5.861-1.311l4.597,20.553l12.701-2.84l1.067,4.776l-18.563,4.151
				L266.612,260.467z"/>
			<path style="fill:#FFFFFF;" d="M309.813,271.703l-11.76,2.63l-1.029,5.93l-6.007,1.343l5.625-27.854l5.79-1.295l16.99,22.796
				l-6.152,1.376L309.813,271.703z M306.973,267.664l-6.186-8.8l-1.848,10.597L306.973,267.664z"/>
			<path style="fill:#FFFFFF;" d="M317.274,262.434c-1.707-7.635,2.932-14.409,10.82-16.173c4.379-0.979,8.39-0.205,11.426,2.155
				l-2.987,4.315c-2.138-1.572-4.499-2.109-7.032-1.542c-4.739,1.059-7.361,5.142-6.293,9.918c1.068,4.776,5.179,7.353,9.918,6.293
				c2.533-0.567,4.441-2.057,5.697-4.428l4.541,2.632c-1.733,3.465-5.032,5.875-9.446,6.862
				C326.065,274.223,318.981,270.069,317.274,262.434z"/>
			<path style="fill:#FFFFFF;" d="M355.22,256.799l-2.608,4.307l1.433,6.404l-5.826,1.303l-5.665-25.329l5.826-1.303l2.647,11.832
				l8.57-14.341l6.514-1.457l-7.969,13.636l14.249,11.556l-6.839,1.529L355.22,256.799z"/>
		</g>
		<g>
			<path style="fill:#FFFFFF;" d="M278.431,249.941l0.486-2.353c1.202,0.521,2.862,0.703,4.335,0.374
				c1.682-0.376,2.24-1.09,2.072-1.843c-0.514-2.297-7.295,0.877-8.313-3.681c-0.466-2.085,0.828-4.197,4.315-4.978
				c1.543-0.345,3.202-0.329,4.502,0.135l-0.395,2.351c-1.283-0.393-2.528-0.445-3.615-0.202c-1.683,0.376-2.19,1.152-2.018,1.922
				c0.506,2.261,7.291-0.893,8.298,3.611c0.458,2.051-0.85,4.184-4.355,4.968C281.799,250.68,279.706,250.54,278.431,249.941z"/>
			<path style="fill:#FFFFFF;" d="M298.337,243.998l-5.696,1.274l-0.498,2.872l-2.909,0.651l2.725-13.492l2.804-0.627l8.229,11.042
				l-2.979,0.667L298.337,243.998z M296.962,242.043l-2.996-4.261l-0.895,5.131L296.962,242.043z"/>
			<path style="fill:#FFFFFF;" d="M301.526,233.165l2.839-0.635l2.227,9.954l6.152-1.376l0.518,2.314l-8.991,2.011L301.526,233.165z
				"/>
			<path style="fill:#FFFFFF;" d="M323.843,238.663l0.51,2.279l-9.499,2.124l-2.744-12.268l9.272-2.074l0.51,2.278l-6.449,1.442
				l0.596,2.664l5.696-1.274l0.494,2.208l-5.696,1.274l0.635,2.839L323.843,238.663z"/>
		</g>
		<g>
			<path style="fill:#FFFFFF;" d="M276.073,297.777l1.192,5.331l9.336-2.088l0.837,3.745l-9.336,2.088l1.643,7.348l-4.668,1.044
				l-4.511-20.169l15.243-3.409l0.837,3.745L276.073,297.777z"/>
			<path style="fill:#FFFFFF;" d="M298.992,293.377l0.928,4.149c-0.381,0.056-0.675,0.091-1.021,0.168
				c-2.479,0.554-3.818,2.275-3.154,5.243l1.637,7.318l-4.495,1.006l-3.467-15.501l4.293-0.96l0.458,2.045
				C294.93,295.103,296.6,293.912,298.992,293.377z"/>
			<path style="fill:#FFFFFF;" d="M300.132,288.463c-0.315-1.413,0.563-2.758,2.234-3.132c1.672-0.373,3.027,0.412,3.337,1.795
				c0.334,1.498-0.544,2.845-2.216,3.218C301.817,290.718,300.448,289.874,300.132,288.463z M301.724,293.009l4.495-1.005
				l3.467,15.501l-4.495,1.005L301.724,293.009z"/>
			<path style="fill:#FFFFFF;" d="M324.874,281.659l4.781,21.38l-4.294,0.96l-0.399-1.786c-0.821,1.605-2.314,2.637-4.39,3.101
				c-4.38,0.979-8.446-1.379-9.536-6.249c-1.089-4.869,1.586-8.736,5.967-9.715c1.9-0.426,3.65-0.181,5.058,0.835l-1.682-7.521
				L324.874,281.659z M323.512,296.274c-0.6-2.68-2.689-3.906-4.908-3.41c-2.247,0.503-3.615,2.503-3.016,5.183
				c0.6,2.681,2.69,3.907,4.936,3.404C322.744,300.954,324.112,298.955,323.512,296.274z"/>
			<path style="fill:#FFFFFF;" d="M345.542,290.199l1.979,8.846l-4.207,0.94l-0.432-1.931c-0.52,1.601-1.966,2.71-4.242,3.219
				c-3.631,0.813-6.243-0.722-6.842-3.401c-0.613-2.738,0.893-5.071,5.618-6.128l3.573-0.799c-0.432-1.931-1.836-2.797-4.256-2.256
				c-1.643,0.367-3.221,1.296-4.145,2.44l-2.315-2.781c1.429-1.59,3.788-2.814,6.265-3.367
				C341.264,283.924,344.491,285.502,345.542,290.199z M341.929,295.151l-0.354-1.585l-3.083,0.689
				c-2.104,0.471-2.592,1.398-2.36,2.435c0.252,1.123,1.369,1.66,2.955,1.306C340.585,297.66,341.726,296.68,341.929,295.151z"/>
			<path style="fill:#FFFFFF;" d="M363.215,279.258l-3.322,18.018c-0.661,4.081-2.542,5.681-5.336,6.306
				c-1.586,0.355-3.431,0.223-4.639-0.444l0.928-3.565c0.826,0.451,1.861,0.612,2.754,0.412c1.239-0.276,1.809-0.979,2.104-2.497
				l0.025-0.156l-10.207-14.116l4.64-1.037l6.703,9.543l2.027-11.496L363.215,279.258z"/>
		</g>
		<g style="opacity:0.3;">
			<g>
				<path style="fill:#FFFFFF;" d="M239.651,240.731c-0.63-2.818,0.59-5.073,3.041-5.621c2.451-0.548,4.534,0.941,5.17,3.785
					c0.637,2.843-0.614,5.079-3.066,5.627C242.346,245.07,240.281,243.551,239.651,240.731z M245.852,239.345
					c-0.427-1.911-1.453-2.815-2.776-2.519c-1.274,0.285-1.861,1.575-1.439,3.461c0.422,1.888,1.502,2.805,2.776,2.52
					C245.737,242.511,246.28,241.257,245.852,239.345z M253.025,232.98l2.402-0.537l-7.88,19.777l-2.402,0.537L253.025,232.98z
					 M252.711,246.305c-0.631-2.819,0.59-5.074,3.04-5.622c2.451-0.548,4.541,0.966,5.171,3.785
					c0.631,2.818-0.614,5.079-3.065,5.627C255.405,250.643,253.34,249.123,252.711,246.305z M258.912,244.917
					c-0.422-1.888-1.478-2.81-2.777-2.52c-1.299,0.29-1.866,1.55-1.439,3.462c0.428,1.911,1.478,2.809,2.776,2.519
					C258.772,248.089,259.334,246.804,258.912,244.917z"/>
			</g>
		</g>
		<g style="opacity:0.3;">
			<g>
				<path style="fill:#FFFFFF;" d="M338.955,223.018c-0.63-2.819,0.591-5.073,3.042-5.622c2.45-0.548,4.533,0.941,5.17,3.785
					c0.636,2.843-0.615,5.079-3.065,5.627C341.65,227.357,339.585,225.837,338.955,223.018z M345.157,221.632
					c-0.428-1.912-1.454-2.815-2.777-2.519c-1.274,0.285-1.861,1.574-1.438,3.462c0.422,1.887,1.502,2.804,2.776,2.519
					C345.041,224.797,345.585,223.544,345.157,221.632z M352.329,215.267l2.402-0.537l-7.879,19.777l-2.402,0.537L352.329,215.267z
					 M352.014,228.59c-0.631-2.818,0.59-5.072,3.041-5.62c2.451-0.548,4.54,0.966,5.17,3.784c0.631,2.819-0.614,5.079-3.065,5.627
					C354.71,232.929,352.644,231.41,352.014,228.59z M358.215,227.203c-0.422-1.887-1.477-2.809-2.777-2.518
					c-1.299,0.29-1.865,1.55-1.438,3.461c0.428,1.912,1.478,2.811,2.776,2.52C358.076,230.376,358.637,229.091,358.215,227.203z"/>
			</g>
		</g>
	</g>
	<g>
		<g>
			<g>
				<circle style="fill:#263238;" cx="332.915" cy="466.733" r="11.585"/>
			</g>
			<g>
				<circle style="fill:#E0E0E0;" cx="332.915" cy="466.733" r="6.312"/>
			</g>
			<g>
				<path style="fill:#455A64;" d="M352.922,447.907v7.735l-17.965,14.471c0,0-1.425,1.045-2.763,1.188
					c-1.338,0.143-2.589-0.614-2.589-2.597c0-3.766,4.695-14.742,4.695-14.742h3.756v-6.056H352.922z"/>
			</g>
			<g>
				<g>
					<path style="fill:#263238;" d="M331.906,467.742c-0.049,0.034-0.227-0.453,0.287-0.949c0.248-0.227,0.695-0.376,1.148-0.225
						c0.449,0.136,0.85,0.612,0.844,1.173c0.006,0.562-0.396,1.037-0.844,1.174c-0.453,0.152-0.9,0.002-1.148-0.225
						C331.679,468.195,331.857,467.708,331.906,467.742c0.08-0.013,0.097,0.39,0.51,0.656c0.197,0.126,0.491,0.18,0.761,0.067
						c0.268-0.106,0.49-0.393,0.487-0.723c0.003-0.33-0.219-0.616-0.487-0.722c-0.27-0.113-0.565-0.059-0.761,0.067
						C332.003,467.352,331.986,467.755,331.906,467.742z"/>
				</g>
			</g>
			<g>
				<g>
					<path style="fill:#263238;" d="M334.3,453.963c0-0.07,1.043-0.139,2.73-0.168c1.687-0.029,4.017-0.009,6.587,0.055
						c2.478,0.078,4.719,0.149,6.58,0.208c1.683,0.066,2.725,0.127,2.725,0.201c0,0.07-1.043,0.139-2.729,0.168
						c-1.687,0.029-4.017,0.009-6.588-0.056c-2.477-0.078-4.718-0.149-6.579-0.208C335.343,454.098,334.301,454.036,334.3,453.963z"
						/>
				</g>
			</g>
		</g>
		<g>
			<g>
				<circle style="fill:#263238;" cx="192.463" cy="466.851" r="11.585"/>
			</g>
			<g>
				<circle style="fill:#E0E0E0;" cx="192.463" cy="466.851" r="6.312"/>
			</g>
			<g>
				<path style="fill:#455A64;" d="M212.47,445.817v9.943l-17.965,14.471c0,0-1.425,1.045-2.763,1.188
					c-1.338,0.144-2.589-0.614-2.589-2.596c0-3.766,4.695-14.742,4.695-14.742h3.756v-8.264H212.47z"/>
			</g>
			<g>
				<g>
					<path style="fill:#263238;" d="M191.454,467.861c-0.049,0.034-0.227-0.453,0.287-0.949c0.248-0.227,0.695-0.377,1.148-0.225
						c0.449,0.136,0.85,0.612,0.844,1.173c0.006,0.562-0.395,1.037-0.844,1.174c-0.453,0.152-0.9,0.002-1.148-0.225
						C191.227,468.313,191.404,467.827,191.454,467.861c0.08-0.013,0.097,0.39,0.51,0.656c0.196,0.126,0.491,0.18,0.761,0.067
						c0.268-0.106,0.49-0.393,0.487-0.723c0.003-0.33-0.219-0.616-0.487-0.722c-0.27-0.113-0.565-0.059-0.761,0.067
						C191.551,467.47,191.534,467.874,191.454,467.861z"/>
				</g>
			</g>
			<g>
				<g>
					<path style="fill:#263238;" d="M193.848,454.081c0-0.07,1.043-0.139,2.73-0.168c1.687-0.029,4.017-0.009,6.587,0.055
						c2.478,0.078,4.719,0.149,6.58,0.208c1.683,0.066,2.725,0.127,2.725,0.201c0,0.07-1.042,0.139-2.729,0.168
						c-1.687,0.029-4.017,0.009-6.588-0.056c-2.477-0.078-4.718-0.149-6.579-0.208C194.89,454.216,193.848,454.155,193.848,454.081z
						"/>
				</g>
			</g>
		</g>
		<g>
			<path style="fill:#455A64;" d="M247.576,393.87c-3.438,0-6.544-2.196-7.665-5.485l-33.798-99.103l179.292,28.979l-4.117,60.52
				c-0.255,3.732-3.262,6.727-6.993,6.967l-126.198,8.107C247.922,393.864,247.749,393.87,247.576,393.87z M209.08,291.786
				l32.723,95.951c0.888,2.603,3.434,4.298,6.165,4.119l126.197-8.107c2.735-0.176,4.939-2.372,5.126-5.107l3.994-58.699
				L209.08,291.786z"/>
		</g>
		<g>
			<polygon style="fill:#455A64;" points="214.25,312.616 206.749,306.901 199.343,285.353 192.85,281.592 193.852,279.862 
				200.992,283.997 208.443,305.678 215.462,311.027 			"/>
		</g>
		<g>
			
				<rect x="297.658" y="234.938" transform="matrix(0.1359 -0.9907 0.9907 0.1359 -59.4895 572.8537)" style="fill:#455A64;" width="1.999" height="171.186"/>
		</g>
		<g>
			
				<rect x="302.46" y="263.089" transform="matrix(0.0592 -0.9982 0.9982 0.0592 -56.7672 625.483)" style="fill:#455A64;" width="2" height="159.54"/>
		</g>
		<g>
			
				<rect x="233.691" y="364.195" transform="matrix(0.9997 -0.0263 0.0263 0.9997 -9.5129 8.2249)" style="fill:#455A64;" width="147.491" height="2.001"/>
		</g>
		<g>
			
				<rect x="240.104" y="380.734" transform="matrix(0.9988 -0.0483 0.0483 0.9988 -18.0923 15.4455)" style="fill:#455A64;" width="140.289" height="2"/>
		</g>
		<g>
			<path style="fill:#455A64;" d="M367.902,383.951l-1.992-0.168c1.874-22.329,3.128-45.009,3.724-67.409l2,0.053
				C371.036,338.865,369.781,361.583,367.902,383.951z"/>
		</g>
		<g>
			<path style="fill:#455A64;" d="M356.4,385.116l-2-0.014c0.003-0.472,0.339-47.43,0.932-69.699l2,0.053
				C356.739,337.706,356.403,384.644,356.4,385.116z"/>
		</g>
		<g>
			
				<rect x="341.698" y="311.778" transform="matrix(0.9997 -0.0263 0.0263 0.9997 -9.0412 9.1256)" style="fill:#455A64;" width="2.001" height="73.584"/>
		</g>
		<g>
			
				<rect x="327.19" y="309.457" transform="matrix(0.9973 -0.0739 0.0739 0.9973 -24.8337 25.207)" style="fill:#455A64;" width="2" height="77.42"/>
		</g>
		<g>
			
				<rect x="309.666" y="305.584" transform="matrix(0.9911 -0.1331 0.1331 0.9911 -43.4272 44.4499)" style="fill:#455A64;" width="2" height="82.746"/>
		</g>
		<g>
			
				<rect x="290.405" y="301.151" transform="matrix(0.983 -0.1837 0.1837 0.983 -58.5139 59.4088)" style="fill:#455A64;" width="2.001" height="88.771"/>
		</g>
		<g>
			
				<rect x="267.948" y="297.124" transform="matrix(0.9694 -0.2457 0.2457 0.9694 -76.3651 76.626)" style="fill:#455A64;" width="2.001" height="94.549"/>
		</g>
		<g>
			
				<rect x="240.636" y="290.674" transform="matrix(0.951 -0.3092 0.3092 0.951 -94.7837 91.6086)" style="fill:#455A64;" width="2.001" height="108.351"/>
		</g>
		<g>
			<path style="fill:#455A64;" d="M359.046,449.705c-0.014,0-0.028,0-0.042,0l-163.534-2.669c-0.667-0.011-1.301-0.288-1.763-0.768
				c-0.462-0.482-0.712-1.127-0.695-1.794c0.073-2.932,0.495-17.72,1.634-20.975c0.406-1.159,1.084-3.099,28.239-16.412
				c2.695-1.321,26.428-12.915,29.702-13.099c3.394-0.189,33.55-1.473,34.832-1.527c1.354-0.048,2.545,1.012,2.604,2.392
				c0.059,1.38-1.013,2.546-2.392,2.604c-0.312,0.013-30.877,1.313-34.674,1.519c-4.287,0.916-49.028,22.391-53.689,26.523
				c-0.492,2.126-0.954,9.482-1.186,16.58l161.003,2.627c1.38,0.022,2.481,1.16,2.459,2.541
				C361.523,448.613,360.408,449.705,359.046,449.705z"/>
		</g>
		<g>
			<path style="fill:#455A64;" d="M286.936,445.541l-20.767-0.51c-3.922-0.195-6.854-1.359-8.74-3.46
				c-1.785-1.99-2.59-4.734-2.39-8.157c0.176-3.036,1.227-6.128,3.038-8.939l20.094-29.712l1.656,1.121l-20.081,29.693
				c-1.613,2.503-2.555,5.26-2.711,7.953c-0.167,2.871,0.466,5.127,1.882,6.705c1.517,1.689,3.981,2.631,7.326,2.797l20.741,0.509
				L286.936,445.541z"/>
		</g>
		<g>
			<path style="fill:#455A64;" d="M281.173,395.705c-16.735-30.147-60.649-108.937-62.853-111.45
				c-1.335-1.189-12.038-4.957-18.462-7.043l0.618-1.902c1.742,0.565,17.078,5.58,19.218,7.494
				c2.066,1.847,53.032,93.564,63.227,111.931L281.173,395.705z"/>
		</g>
		<g>
			<path style="fill:#455A64;" d="M204.483,276.857l-11.015,6.692c0,0-12.725-5.756-13.785-7.12c-1.06-1.363-1.363-6.429,3.03-7.38
				C187.106,268.098,204.483,276.857,204.483,276.857z"/>
		</g>
		<g>
			<g>
				<path style="fill:#263238;" d="M183.286,273.539c-0.029,0.001-0.083-0.187-0.033-0.534c0.05-0.339,0.242-0.854,0.745-1.27
					c0.485-0.415,1.327-0.673,2.165-0.38c0.83,0.265,1.563,1.146,1.553,2.183c0.01,1.037-0.723,1.918-1.553,2.184
					c-0.838,0.293-1.68,0.035-2.165-0.38c-0.502-0.415-0.695-0.931-0.745-1.27C183.203,273.726,183.257,273.537,183.286,273.539
					c0.042-0.001,0.06,0.185,0.164,0.484c0.102,0.294,0.324,0.714,0.771,1.026c0.433,0.314,1.123,0.476,1.778,0.222
					c0.65-0.235,1.203-0.928,1.196-1.732c0.007-0.804-0.546-1.497-1.196-1.732c-0.655-0.254-1.345-0.092-1.778,0.222
					c-0.448,0.312-0.669,0.732-0.771,1.026C183.346,273.354,183.328,273.539,183.286,273.539z"/>
			</g>
		</g>
		<g>
			<g>
				<path style="fill:#263238;" d="M195.516,446.599c0.002-0.144,36.544,0.325,81.608,1.048c45.08,0.722,81.61,1.425,81.608,1.568
					c-0.002,0.144-36.536-0.325-81.616-1.048C232.052,447.445,195.514,446.743,195.516,446.599z"/>
			</g>
		</g>
	</g>
</g>
<g id="Floor">
	<g>
		<g>
			<path style="fill:#263238;" d="M447.073,478.436c0,0.144-89.135,0.26-199.064,0.26c-109.967,0-199.083-0.117-199.083-0.26
				c0-0.144,89.116-0.26,199.083-0.26C357.938,478.175,447.073,478.292,447.073,478.436z"/>
		</g>
	</g>
</g>
<g id="Speech_Bubble">
	<g>
		<g>
			<g>
				<g>
					<g>
						<path style="fill:#FFFFFF;" d="M131.146,109.287l-7.777-13.705c3.44-5.584,5.429-12.158,5.429-19.198
							c0-20.246-16.412-36.658-36.658-36.658c-20.246,0-36.658,16.412-36.658,36.658c0,20.245,16.412,36.658,36.658,36.658
							c8.454,0,16.233-2.869,22.434-7.676l-0.012,0.016L131.146,109.287z"/>
					</g>
					<g>
						<g>
							<path style="fill:#263238;" d="M131.146,109.287c-0.766-0.175-6.03-1.379-16.609-3.799c-0.059-0.013-0.096-0.072-0.082-0.131
								c0.004-0.016,0.011-0.031,0.02-0.043l0.012-0.016l0.154,0.153c-2.091,1.62-4.596,3.216-7.54,4.545
								c-2.948,1.307-6.325,2.375-10.054,2.87c-1.862,0.238-3.807,0.391-5.805,0.293c-0.999-0.057-2.015-0.081-3.041-0.167
								c-1.019-0.154-2.051-0.31-3.098-0.468c-4.151-0.819-8.396-2.396-12.355-4.853c-3.957-2.448-7.62-5.772-10.557-9.857
								c-2.932-4.077-5.155-8.911-6.196-14.165c-1.031-5.246-0.945-10.869,0.433-16.31c1.387-5.423,3.979-10.721,7.859-15.079
								l1.497-1.647c0.492-0.554,1.079-1.011,1.613-1.519c0.558-0.48,1.062-1.025,1.662-1.45l1.76-1.316
								c0.57-0.46,1.198-0.832,1.822-1.205c0.622-0.377,1.242-0.754,1.86-1.129c0.651-0.316,1.3-0.631,1.947-0.946
								c0.653-0.301,1.281-0.657,1.966-0.874c5.326-2.114,11.006-2.919,16.435-2.526c5.431,0.391,10.627,1.949,15.085,4.458
								c4.472,2.489,8.243,5.813,11.153,9.525c2.92,3.714,4.977,7.811,6.25,11.89c1.265,4.098,1.608,8.163,1.594,11.925
								c-0.109,3.772-0.795,7.247-1.795,10.296c-1.002,3.054-2.318,5.681-3.677,7.891l0.002-0.107
								C128.374,104.324,130.779,108.631,131.146,109.287c-0.375-0.651-2.838-4.925-7.868-13.653
								c-0.02-0.034-0.017-0.076,0.002-0.107c1.337-2.206,2.629-4.823,3.609-7.86c0.978-3.033,1.644-6.483,1.738-10.225
								c-0.001-3.732-0.353-7.759-1.618-11.816c-1.273-4.037-3.321-8.088-6.218-11.758c-2.889-3.668-6.626-6.95-11.052-9.405
								c-4.413-2.475-9.552-4.008-14.921-4.389c-5.368-0.383-10.981,0.416-16.242,2.508c-0.677,0.214-1.297,0.567-1.942,0.865
								c-0.64,0.311-1.281,0.622-1.924,0.935c-0.611,0.371-1.223,0.744-1.837,1.117c-0.617,0.369-1.237,0.736-1.8,1.191l-1.739,1.3
								c-0.593,0.419-1.09,0.958-1.642,1.433c-0.527,0.503-1.107,0.953-1.593,1.501l-1.479,1.628
								c-3.834,4.306-6.395,9.54-7.769,14.897c-1.364,5.376-1.453,10.934-0.44,16.12c1.023,5.193,3.216,9.975,6.11,14.012
								c2.899,4.044,6.517,7.34,10.428,9.771c3.913,2.44,8.111,4.01,12.221,4.834c1.036,0.16,2.059,0.317,3.068,0.473
								c1.016,0.088,2.023,0.115,3.013,0.174c1.981,0.104,3.91-0.042,5.756-0.271c3.699-0.478,7.054-1.523,9.986-2.807
								c2.929-1.306,5.426-2.878,7.515-4.475c0.048-0.037,0.117-0.029,0.154,0.019c0.031,0.04,0.03,0.096,0,0.134l-0.013,0.016
								l-0.062-0.173C125.135,107.831,130.383,109.102,131.146,109.287z"/>
						</g>
					</g>
				</g>
			</g>
		</g>
		<g>
			<g>
				<g>
					<path style="fill:#FF725E;" d="M81.375,69.401c-0.538-0.289-1.204-0.392-1.824-0.47c-1.951-0.247-3.619,0.308-5.035,1.861
						c3.969,2.3,9.367,5.351,13.229,7.553l4.875-2.788C89.111,73.62,84.698,71.188,81.375,69.401z"/>
				</g>
				<g style="opacity:0.3;">
					<path d="M81.375,69.401c-0.538-0.289-1.204-0.392-1.824-0.47c-1.951-0.247-3.619,0.308-5.035,1.861
						c3.969,2.3,9.367,5.351,13.229,7.553l4.875-2.788C89.111,73.62,84.698,71.188,81.375,69.401z"/>
				</g>
			</g>
			<g>
				<g>
					<path style="fill:#FF725E;" d="M96.307,83.484c-0.125-0.103-0.149-0.13-0.179-0.147c-1.214-0.701-2.5-2.041-3.73-2.016
						c-0.468,0.01-0.972,0.412-2.182,1.094c-2.016,1.137-5.4,3.121-7.426,4.239c-1.729,0.954-3.838,1.669-5.807,1.049
						c-0.958-0.302-1.72-0.839-2.729-1.649c7.55-4.377,14.759-8.556,22.049-12.783c-0.115-0.327-0.23-0.642-0.338-0.96
						c-0.893-2.649,0.064-5.563,2.354-7.173c2.312-1.625,5.426-1.509,7.639,0.286c2.153,1.746,2.893,4.755,1.801,7.325
						c-1.101,2.593-3.731,4.107-6.52,3.824c-0.478-0.049-1.028,0.087-1.468,0.297c-0.84,0.401-1.624,0.916-2.625,1.496
						c1.697,0.763,2.849,1.975,4.83,1.791c2.737-0.254,5.169,1.729,6.001,4.374c0.814,2.587-0.132,5.404-2.349,6.992
						c-2.23,1.598-5.277,1.563-7.476-0.087c-2.169-1.627-3.056-4.477-2.189-7.048C96.063,84.093,96.184,83.807,96.307,83.484z
						 M101.937,73.329c1.716,0.008,3.064-1.353,3.049-3.077c-0.015-1.646-1.381-3.007-3.025-3.014
						c-1.669-0.007-3.095,1.43-3.072,3.095C98.911,71.97,100.287,73.322,101.937,73.329z M101.902,89.455
						c1.637,0.029,3.04-1.317,3.082-2.957c0.044-1.731-1.274-3.113-2.99-3.134c-1.655-0.021-3.046,1.294-3.106,2.937
						C98.828,87.956,100.233,89.426,101.902,89.455z"/>
				</g>
			</g>
			<g>
				<g>
					<path style="fill:#263238;" d="M93.737,78.241c-0.076,0.025-0.045-0.574-0.662-1.019c-0.295-0.209-0.758-0.313-1.196-0.141
						c-0.434,0.16-0.801,0.623-0.797,1.159c-0.005,0.537,0.363,1,0.797,1.159c0.437,0.172,0.901,0.068,1.196-0.141
						C93.693,78.814,93.661,78.216,93.737,78.241c0.025-0.001,0.069,0.129,0.038,0.372c-0.03,0.237-0.161,0.6-0.511,0.894
						c-0.338,0.294-0.931,0.479-1.523,0.274c-0.587-0.185-1.106-0.808-1.098-1.541c-0.007-0.733,0.512-1.355,1.098-1.54
						c0.592-0.205,1.185-0.02,1.523,0.274c0.351,0.294,0.481,0.657,0.512,0.894C93.806,78.112,93.763,78.242,93.737,78.241z"/>
				</g>
			</g>
			<g>
				<g>
					<path style="fill:#263238;" d="M99.128,77.172c0.006,0.01-0.153,0.117-0.447,0.299c-0.387,0.234-0.801,0.486-1.253,0.759
						c-1.21,0.711-2.616,1.536-4.169,2.448c-1.563,0.896-2.977,1.706-4.195,2.404c-0.462,0.256-0.885,0.491-1.281,0.711
						c-0.304,0.164-0.475,0.25-0.481,0.24c-0.006-0.011,0.154-0.117,0.448-0.3c0.387-0.234,0.802-0.486,1.254-0.759
						c1.21-0.711,2.616-1.536,4.168-2.448c1.562-0.895,2.976-1.705,4.193-2.402c0.462-0.257,0.886-0.492,1.281-0.711
						C98.951,77.247,99.122,77.161,99.128,77.172z"/>
				</g>
			</g>
			<g>
				<g>
					<path style="fill:#263238;" d="M95.463,73.791c0.003,0.005-0.068,0.054-0.205,0.142c-0.182,0.113-0.381,0.237-0.606,0.377
						c-0.611,0.37-1.361,0.824-2.246,1.36c-1.899,1.144-4.527,2.716-7.472,4.38c-2.897,1.645-5.517,3.132-7.534,4.277
						c-0.903,0.504-1.669,0.931-2.293,1.279c-0.233,0.126-0.439,0.238-0.628,0.34c-0.145,0.076-0.222,0.113-0.225,0.108
						c-0.003-0.005,0.069-0.053,0.207-0.139c0.184-0.111,0.385-0.232,0.612-0.369c0.616-0.361,1.373-0.804,2.265-1.327
						c2.01-1.157,4.62-2.659,7.507-4.321c2.944-1.663,5.582-3.219,7.497-4.335c0.896-0.517,1.656-0.955,2.274-1.311
						c0.231-0.129,0.436-0.244,0.623-0.349C95.383,73.825,95.459,73.786,95.463,73.791z"/>
				</g>
			</g>
		</g>
	</g>
</g>
</svg>
